<?xml version="1.0" standalone="no"?>
<!DOCTYPE svg PUBLIC "-//W3C//DTD SVG 20010904//EN"
 "http://www.w3.org/TR/2001/REC-SVG-20010904/DTD/svg10.dtd">
<svg version="1.0" xmlns="http://www.w3.org/2000/svg"
 width="32.000000pt" height="32.000000pt" viewBox="0 0 32.000000 32.000000"
 preserveAspectRatio="xMidYMid meet">

<g transform="translate(0.000000,32.000000) scale(0.100000,-0.100000)"
fill="#000000" stroke="none">
<path d="M63 280 c-18 -7 -21 -15 -17 -44 2 -20 6 -52 9 -72 4 -39 42 -95 81
-120 22 -15 26 -15 49 0 41 27 85 95 85 131 0 28 -4 33 -31 39 -62 12 -79 8
-79 -19 0 -18 5 -25 19 -25 28 0 33 -13 15 -38 -32 -46 -84 -8 -84 62 0 42 21
49 101 37 30 -5 55 -8 55 -7 1 0 5 11 8 23 6 19 2 25 -19 33 -32 12 -162 12
-192 0z"/>
</g>
</svg>
